<svg xmlns="http://www.w3.org/2000/svg" width="95.25" height="80.34">
  <path d="M56.44 80.22c-10.95-.72-20.17-4.04-27.16-9.76l-.57-.47.08.37c.04.2.42 1.05.83 1.88a29.93 29.93 0 0 0 2.88 4.51c.24.33.25.33-1.39-.75a28.7 28.7 0 0 1-9.79-11.26c-.62-1.25-.9-1.72-.91-1.49 0 1.5.96 6.02 1.69 7.96.18.48.33.9.33.94 0 .14-1.2-1.45-1.92-2.56a36.66 36.66 0 0 1-5.2-14.3c-.32-2.22-.3-2.18-.59-1.52-.34.8-.95 3.14-1.17 4.55a45.16 45.16 0 0 0-.56 7.5l-.08 3.9-.54-1.83a65.43 65.43 0 0 1-2.25-10.3c-.3-2.3-.3-7.16 0-9.04a23.22 23.22 0 0 1 2.44-7.46l.5-.85 1 .04c1.07.05 1.75-.17 2.4-.76l.27-.25 2.6 1.84a46.05 46.05 0 0 0 2.7 1.84c.06 0 .17-.24.26-.54.32-1.1 1.83-5.01 2.69-6.96a90.81 90.81 0 0 1 3.53-7.15l.7-1.22-1.35.93a325.38 325.38 0 0 1-10.53 7.13c-.16 0-.95-.8-.95-.97 0-.06-.27-.2-.59-.3-.32-.1-.64-.27-.7-.37-.08-.14.43-1.76 1.78-5.6 1.05-2.98 1.96-5.47 2.02-5.53.14-.15 1.4.14 1.47.34.03.08-.8 2.55-1.83 5.5a185.5 185.5 0 0 0-1.84 5.39c.02.02 3.23-2.16 7.14-4.84 3.9-2.68 7.2-4.9 7.32-4.93.66-.18.23.79-1.1 2.4l-.57.71 1.8-1.17 4-2.63 2.22-1.45.24.44A3.67 3.67 0 1 0 41 16.49c-.54 0-.54 0-.75-.65-.12-.35-.25-.58-.3-.5-.13.2-1.01.77-1.22.77-.16 0-.16.06 0 .44.18.42.17.45-.15.7a4.3 4.3 0 0 0-1.3 2.03l-.15.64-2.75 1.81c-1.52 1-2.79 1.81-2.83 1.81-.1 0 .7-1.08 1.9-2.58a38.7 38.7 0 0 1 4.2-4.36l.79-.68-.46-1.32a47.9 47.9 0 0 0-.62-1.7c-.09-.2-.27-.72-.4-1.13a5.3 5.3 0 0 0-.34-.92c-.22-.3.02-.5.73-.6.82-.1 1.02.01 1.15.6.04.22.13.49.18.6.06.1.2.47.31.82l.31.88c.05.14.2.56.32.95l.26.73c.02.03.62-.32 1.34-.76a36.82 36.82 0 0 1 8.54-4c4.67-1.56 9.2-2.2 12.13-1.72l1.32.2c.28 0-2.66-2-4.17-2.83-1.4-.76-3.6-1.7-5.51-2.32l-1.6-.53-.13-.7c-.16-.77-.12-.92.22-.92.33 0 2.91.83 4.36 1.4 3.83 1.53 8.14 4.32 9.88 6.4.42.5.81.78 1.64 1.2a20.08 20.08 0 0 1 6.31 5.05 22.26 22.26 0 0 1 2.65 4.47l.53 1.23 1.78.72c2.43.98 6.8 3.14 8.37 4.14 3.33 2.13 5.83 4.62 7.2 7.15l.5.95-2.4.3c-2.01.23-2.8.27-4.88.21a24.3 24.3 0 0 1-6.89-1.03c-6.18-1.68-8.58-2.17-11.2-2.32-3.06-.17-5.6.23-7.57 1.18-1.16.56-1.76 1-3.5 2.56-3.85 3.45-5.52 6.36-6.08 10.56-.34 2.65-.18 4.37.65 6.85a18.62 18.62 0 0 0 4.51 7.37 16.3 16.3 0 0 0 12.06 4.87c1.02 0 2.14-.03 2.49-.08.36-.05.64-.04.64.02 0 .24-1.42 1.83-2.24 2.51-.46.39-1.36 1.05-1.98 1.46-.62.41-1.16.78-1.2.82-.13.14 3.27-.1 4.8-.33 4.08-.65 8.55-1.84 10.92-2.92.46-.2.85-.35.87-.33.08.09-2.35 1.8-3.77 2.65a50 50 0 0 1-19.37 6.72c-1.84.24-7.35.32-9.76.14l-1.26-.1.88.58c2.8 1.83 5.92 3.07 10.66 4.26l1.69.43h-2.65c-1.45-.01-3.35-.06-4.22-.12zm10.9-58.93a3.08 3.08 0 0 0 1.67-3.71 3.76 3.76 0 0 0-1.92-1.96c-2.09-.57-3.97.8-3.97 2.89 0 .74.33 1.62.8 2.12a3.32 3.32 0 0 0 3.43.66zM2.72 56.56c-.2-.34.87-9.42 1.52-12.79 1.4-7.22 4.07-14.1 7.08-18.25.24-.33.41-.63.38-.66-.07-.07-2.34 1.48-3.93 2.7-1.3.99-3.18 2.61-5.92 5.1-.89.8-1.67 1.47-1.73 1.47-.06 0-.11-.28-.11-.61 0-.65.77-2.47 2.56-6.02 4.82-9.6 11.86-16.3 20.67-19.66l1.78-.68-.95.08c-.52.04-2.66.3-4.77.57-2.1.28-3.97.49-4.16.47-.23-.03-.33-.12-.33-.3 0-.2.56-.5 3.09-1.66a88.35 88.35 0 0 1 8-3.34A53.54 53.54 0 0 1 36.78.36C40.26-.1 45.24-.12 45.8.3c.22.16.21.2-.1.77l-.34.61-3.06.02c-3.4.01-5.38.2-8.5.81a57.32 57.32 0 0 0-9 2.63l-.94.36 2.84-.02c3.45-.02 7.06.16 7.13.35.03.08 0 .48-.05.9l-.1.75-.87-.03c-.49-.02-1.48.06-2.2.17-10.05 1.52-18.84 7.62-24.6 17.06-1.12 1.83-2.2 3.84-1.98 3.71.1-.06.8-.62 1.56-1.25a50.2 50.2 0 0 1 8.61-5.66c.65-.33 1.49-.84 1.87-1.15.38-.31.77-.56.86-.56.2 0 1 1.57.9 1.75-.05.07-.4.27-.8.45-.82.37-1.65 1.13-3.03 2.77-3.68 4.38-6.48 10.98-8.08 19.04a61.86 61.86 0 0 0-.87 5.66c.02.02.5-.8 1.04-1.81 2.04-3.8 5.09-8.33 5.66-8.44.26-.05 1.22.57 1.22.79 0 .08-.32.54-.7 1.02-1.92 2.39-3.59 5.2-6.8 11.44-1.7 3.27-2.22 4.18-2.42 4.21-.15.03-.3-.02-.35-.1zM13.3 39.08a2.33 2.33 0 0 1-1.08-3.13c.27-.6.55-.86 1.18-1.12a2.52 2.52 0 0 1 2.53.4c.37.33.7 1.17.7 1.77.01.57-.31 1.34-.7 1.68-.7.61-1.88.8-2.63.4zM39.75 22.5c-.35-.16-.73-.4-.85-.54a3.6 3.6 0 0 1-.72-1.87c0-.53.36-1.46.72-1.87a3.63 3.63 0 0 1 1.98-.84c.56 0 1.65.46 1.98.84.36.4.72 1.34.73 1.87 0 .56-.46 1.64-.83 1.98-.41.36-1.35.72-1.88.72-.28 0-.79-.13-1.13-.29zm-20.2-1.22a2.34 2.34 0 0 1-1.03-3.08c1.02-2.1 4.16-1.52 4.38.81a2.32 2.32 0 0 1-3.35 2.27zm3.83-3.6a3.88 3.88 0 0 1-.32-.67c0-.18 10.79-8.2 11.03-8.2.28 0 .97.81.91 1.07-.05.22-10.88 8.38-11.12 8.38-.1 0-.32-.26-.5-.58zm12.67-8.62a2.34 2.34 0 0 1-.25-3.99 2.32 2.32 0 1 1 .25 3.99zm4.22-2.36c-.03-.05-.1-.35-.14-.68-.08-.5-.06-.6.15-.71.5-.27 4.6-1.79 4.83-1.79.27 0 .82 1.01.71 1.3-.07.2-4.75 1.98-5.18 1.98-.17 0-.34-.04-.37-.1zm7.25-1.93a2.34 2.34 0 0 1-1.03-3.07c1.02-2.1 4.09-1.55 4.36.78.22 1.8-1.71 3.12-3.33 2.3z" style="fill:#000;stroke-width:.125984"/>
</svg>
