<svg xmlns="http://www.w3.org/2000/svg" width="319" height="432">
  <path d="M300.7 431.8c-14-2.6-18.1-20.2-6.7-28.6 1.7-1.2 2-1.7 2-2.2l-4.8-31.1a613.6 613.6 0 0 0-6.5-40.9l-1.8-.5c-4.2-1-8.4-4.2-10.3-7.9-.8-1.6-1-1.8-1.7-1.6l-6 .8-12.6 1.6A15307 15307 0 0 1 148 335a13427.7 13427.7 0 0 1-79.7 10.4 28049.1 28049.1 0 0 0-28.4 3.7c-9 1.1-8.3 1-8.6 2.3-2.2 13.2-20.2 17.2-28.2 6.3-7-9.4-1.4-23.5 9.9-25 1.3-.2 1.2 0 2-4.8a9711.7 9711.7 0 0 1 12.3-80.1A84568.4 84568.4 0 0 1 55.6 64.3c5.6-36.1 5.3-33.5 3.8-34.3-6-2.7-9.8-10-8.8-16.2 3-18.7 29-18.3 31.5.5l.4 2.4 4 1.3a1685.6 1685.6 0 0 0 31.4 9.6 52171.5 52171.5 0 0 0 70.4 21.6c29.2 9 25.8 8.3 27.2 6.4 3.2-4.2 9.4-6.8 14.5-6a15.9 15.9 0 0 1 7.2 28.7c-2 1.4-2 1.5-1.9 2.5a8416 8416 0 0 0 9.5 39.6A85279.6 85279.6 0 0 1 283 282l3.6 15.1 1.4.2c15.4 2.1 19.6 22.1 6.3 29.7-1.5.8-1.7 1-1.6 1.8a471.3 471.3 0 0 1 2.4 15.4l8.4 55c.1.9.3 1 3.3 1.6a15.8 15.8 0 0 1-6.2 31zM43 340.8A52539.1 52539.1 0 0 0 201.6 320a20088.9 20088.9 0 0 1 69-9s.3-.4.4-1c.6-3.5 3.1-7.6 6-9.7 2.1-1.4 2.1-1.5 1.3-5A46502.1 46502.1 0 0 1 240 134.7l-11-46.7c-1.7-7-1.5-6.7-3.6-7a16 16 0 0 1-13.3-14l-.4-2.5-3.8-1.2a8429.2 8429.2 0 0 0-75.6-23.1 15390.2 15390.2 0 0 0-45.7-14l-6.8-2.1-.7 1a16 16 0 0 1-8.2 5.7l-2.3.7-3 18.6a14391.4 14391.4 0 0 1-10.9 70.7l-1.7 11.2a26216 26216 0 0 0-13.2 85.1L32.4 266l-6 38.4c-4.8 31.7-4.6 29.2-3.4 29.8 2.5 1 5.5 4.2 7.2 7.3.4.6.7 1 1.1.8l11.7-1.6zm110.3-76a1587 1587 0 0 1 4.7-54.6 843.5 843.5 0 0 1 2-21.3 1919 1919 0 0 1 3-33.6 558 558 0 0 0 1.4-16l1.6-17.8c1.4-15.2 1.4-15.6 2-15.4.1 0 1.7.6 3.5 1l3.1 1-.2 4.3a172.2 172.2 0 0 1-.6 9.8 1544 1544 0 0 1-2 29.1c0 1.6-.7 10.4-1.3 19.7a18891.3 18891.3 0 0 0-4.4 66.7c-.6 9.4-1.8 26.8-2 27.3-.2.6-10.6.5-10.8-.1zm42.2-35.2a926.2 926.2 0 0 1-2.5-19.3c-.3-1.2 2.7-3.8 14.3-13a179 179 0 0 1 15.4-12.4c4.3-3.4 4.2-2.8 1-5.6a396.6 396.6 0 0 0-13.5-11.7 24447 24447 0 0 1-24-20.6 6.8 6.8 0 0 1-1.7-2c-.4-.9-2-13.5-2-14.2.2-.4 3.1 2 9.8 7.9a6193 6193 0 0 0 24.5 21.4 202.2 202.2 0 0 1 17.8 16c1.9 8.1 3.3 14.6 3.3 15 0 .3-2 2.4-4.4 4.7l-6.8 6.4-8 7.5a944 944 0 0 0-15.6 14.6c-8 7.6-7.3 7-7.6 5.3zm-53.5-3.2a278.9 278.9 0 0 0-9-7.6 782.6 782.6 0 0 1-14.5-12.3 815.4 815.4 0 0 1-10.5-9A573.1 573.1 0 0 1 94.2 186a782.5 782.5 0 0 0-14.6-12.4 133.9 133.9 0 0 1-6.8-5.7c-3.6-3-3.4-1.8-2-12.9 1.5-11 1.3-10.3 4.8-11.6 1.3-.5 3-1 3.5-1.3a1740.4 1740.4 0 0 1 24.5-9.1 672.2 672.2 0 0 1 23.6-8.8 1175.7 1175.7 0 0 0 12.5-4.5l.8-.2.3 7.9v8.1l-2.3 1a97.6 97.6 0 0 0-6.5 2.7c-1.2.5-2.6 1-3 1.3a646.5 646.5 0 0 1-15.1 6.3 1045.8 1045.8 0 0 1-25.7 10.7c-.4.2.9 1.4 4.8 4.6a302.8 302.8 0 0 1 11.6 9.6 715 715 0 0 1 16.5 13.8 115.1 115.1 0 0 0 6.5 5.4 6341.2 6341.2 0 0 0 14.8 12.4c.7.7.7 1 1 9.6.4 16.1.4 15.2-1.4 13.6z" style="fill:#000;stroke-width:.320049"/>
</svg>
