<svg id="visual" preserveAspectRatio="none" viewBox="0 0 900 600" width="900" height="600" xmlns="http://www.w3.org/2000/svg" xmlns:xlink="http://www.w3.org/1999/xlink" version="1.1"><path d="M0 424L21.5 419.5C43 415 86 406 128.8 406C171.7 406 214.3 415 257.2 410.8C300 406.7 343 389.3 385.8 377.7C428.7 366 471.3 360 514.2 365.5C557 371 600 388 642.8 392.5C685.7 397 728.3 389 771.2 386.7C814 384.3 857 387.7 878.5 389.3L900 391L900 601L878.5 601C857 601 814 601 771.2 601C728.3 601 685.7 601 642.8 601C600 601 557 601 514.2 601C471.3 601 428.7 601 385.8 601C343 601 300 601 257.2 601C214.3 601 171.7 601 128.8 601C86 601 43 601 21.5 601L0 601Z" fill="#c4b5fd"></path><path d="M0 402L21.5 403.2C43 404.3 86 406.7 128.8 412.5C171.7 418.3 214.3 427.7 257.2 426C300 424.3 343 411.7 385.8 416.2C428.7 420.7 471.3 442.3 514.2 448.5C557 454.7 600 445.3 642.8 434.2C685.7 423 728.3 410 771.2 405.5C814 401 857 405 878.5 407L900 409L900 601L878.5 601C857 601 814 601 771.2 601C728.3 601 685.7 601 642.8 601C600 601 557 601 514.2 601C471.3 601 428.7 601 385.8 601C343 601 300 601 257.2 601C214.3 601 171.7 601 128.8 601C86 601 43 601 21.5 601L0 601Z" fill="#ad9bee"></path><path d="M0 456L21.5 455.5C43 455 86 454 128.8 461.8C171.7 469.7 214.3 486.3 257.2 489.5C300 492.7 343 482.3 385.8 476.7C428.7 471 471.3 470 514.2 466.5C557 463 600 457 642.8 453.7C685.7 450.3 728.3 449.7 771.2 455.5C814 461.3 857 473.7 878.5 479.8L900 486L900 601L878.5 601C857 601 814 601 771.2 601C728.3 601 685.7 601 642.8 601C600 601 557 601 514.2 601C471.3 601 428.7 601 385.8 601C343 601 300 601 257.2 601C214.3 601 171.7 601 128.8 601C86 601 43 601 21.5 601L0 601Z" fill="#9682de"></path><path d="M0 492L21.5 491.2C43 490.3 86 488.7 128.8 494.5C171.7 500.3 214.3 513.7 257.2 519C300 524.3 343 521.7 385.8 516.2C428.7 510.7 471.3 502.3 514.2 499C557 495.7 600 497.3 642.8 499.5C685.7 501.7 728.3 504.3 771.2 503.8C814 503.3 857 499.7 878.5 497.8L900 496L900 601L878.5 601C857 601 814 601 771.2 601C728.3 601 685.7 601 642.8 601C600 601 557 601 514.2 601C471.3 601 428.7 601 385.8 601C343 601 300 601 257.2 601C214.3 601 171.7 601 128.8 601C86 601 43 601 21.5 601L0 601Z" fill="#7f69cf"></path><path d="M0 544L21.5 542.3C43 540.7 86 537.3 128.8 541.8C171.7 546.3 214.3 558.7 257.2 557.7C300 556.7 343 542.3 385.8 541.2C428.7 540 471.3 552 514.2 557.2C557 562.3 600 560.7 642.8 559.3C685.7 558 728.3 557 771.2 559.5C814 562 857 568 878.5 571L900 574L900 601L878.5 601C857 601 814 601 771.2 601C728.3 601 685.7 601 642.8 601C600 601 557 601 514.2 601C471.3 601 428.7 601 385.8 601C343 601 300 601 257.2 601C214.3 601 171.7 601 128.8 601C86 601 43 601 21.5 601L0 601Z" fill="#6751bf"></path></svg>
