<?xml version="1.0" encoding="UTF-8" standalone="no"?>
<svg
   xmlns:dc="http://purl.org/dc/elements/1.1/"
   xmlns:cc="http://creativecommons.org/ns#"
   xmlns:rdf="http://www.w3.org/1999/02/22-rdf-syntax-ns#"
   xmlns:svg="http://www.w3.org/2000/svg"
   xmlns="http://www.w3.org/2000/svg"
   xmlns:sodipodi="http://sodipodi.sourceforge.net/DTD/sodipodi-0.dtd"
   xmlns:inkscape="http://www.inkscape.org/namespaces/inkscape"
   version="1.1"
   id="svg10"
   width="95.246002"
   height="80.3395"
   viewBox="0 0 95.246003 80.3395"
   sodipodi:docname="DevCorvus.svg"
   inkscape:version="1.0.2 (e86c870879, 2021-01-15)">
  <metadata
     id="metadata16">
    <rdf:RDF>
      <cc:Work
         rdf:about="">
        <dc:format>image/svg+xml</dc:format>
        <dc:type
           rdf:resource="http://purl.org/dc/dcmitype/StillImage" />
        <dc:title></dc:title>
      </cc:Work>
    </rdf:RDF>
  </metadata>
  <defs
     id="defs14" />
  <sodipodi:namedview
     pagecolor="#ffffff"
     bordercolor="#666666"
     borderopacity="1"
     objecttolerance="10"
     gridtolerance="10"
     guidetolerance="10"
     inkscape:pageopacity="0"
     inkscape:pageshadow="2"
     inkscape:window-width="1024"
     inkscape:window-height="705"
     id="namedview12"
     showgrid="false"
     inkscape:zoom="4"
     inkscape:cx="56.502238"
     inkscape:cy="42.606734"
     inkscape:window-x="-8"
     inkscape:window-y="-8"
     inkscape:window-maximized="1"
     inkscape:current-layer="g18"
     showborder="false" />
  <g
     inkscape:groupmode="layer"
     inkscape:label="Image"
     id="g18">
    <path
       style="fill:#000000;stroke-width:0.125984"
       d="m 56.440829,80.223216 c -10.948608,-0.72405 -20.173924,-4.04016 -27.155963,-9.76143 l -0.576149,-0.47211 0.08091,0.36804 c 0.0445,0.20242 0.417237,1.04835 0.828302,1.87985 0.625712,1.26568 1.273871,2.27964 2.88594,4.51466 0.232965,0.32299 0.249063,0.33168 -1.391934,-0.75189 -4.090842,-2.70123 -7.440378,-6.55342 -9.788397,-11.25729 -0.626173,-1.25443 -0.912871,-1.72159 -0.913384,-1.48831 -0.0033,1.4994 0.955013,6.01711 1.688175,7.95846 0.179751,0.47596 0.326821,0.8969 0.326821,0.93541 0,0.13972 -1.190083,-1.45005 -1.913922,-2.55671 -2.552,-3.9017 -4.479678,-9.19803 -5.204405,-14.29921 -0.316046,-2.224556 -0.299457,-2.181456 -0.585503,-1.521278 -0.344952,0.796125 -0.949991,3.143588 -1.171414,4.544898 -0.388733,2.46017 -0.480136,3.68951 -0.557338,7.49606 l -0.07921,3.90551 -0.53857,-1.8324 c -1.13617,-3.86564 -1.809434,-6.93996 -2.254968,-10.29684 -0.3052601,-2.29999 -0.3052537,-7.157705 10e-6,-9.036109 0.460473,-2.833462 1.359948,-5.581947 2.442044,-7.46204 l 0.490902,-0.852921 1.012556,0.04431 c 1.069192,0.04679 1.746618,-0.168689 2.394589,-0.761672 l 0.270981,-0.247983 2.595325,1.837004 c 1.427429,1.010352 2.642968,1.837004 2.701198,1.837004 0.05823,0 0.176449,-0.240945 0.262708,-0.535433 0.323148,-1.103237 1.832569,-5.015755 2.685358,-6.96063 1.013322,-2.310986 2.523718,-5.36411 3.534941,-7.145545 l 0.694961,-1.224285 -1.342882,0.925899 c -6.3419,4.372663 -10.413952,7.12897 -10.532037,7.12897 -0.159295,0 -0.952208,-0.803168 -0.953199,-0.965527 -3.78e-4,-0.05794 -0.263613,-0.190614 -0.585022,-0.294839 -0.321411,-0.104225 -0.63742,-0.274303 -0.702244,-0.377953 -0.08377,-0.133948 0.432068,-1.753931 1.783534,-5.601138 1.045768,-2.976977 1.952755,-5.464046 2.015529,-5.52682 0.145104,-0.145104 1.393333,0.144594 1.468644,0.340853 0.03023,0.07878 -0.790737,2.552394 -1.824372,5.496926 -1.033634,2.944532 -1.863872,5.36986 -1.844975,5.389618 0.0189,0.01976 3.230787,-2.157591 7.13753,-4.838553 3.906744,-2.680963 7.201693,-4.900411 7.322112,-4.932107 0.664372,-0.174874 0.227346,0.790323 -1.090347,2.408098 l -0.577742,0.709314 1.795437,-1.174818 c 0.987492,-0.64615 2.792612,-1.828994 4.011378,-2.628543 l 2.215942,-1.453727 0.236629,0.439396 c 0.787803,1.462866 2.997897,2.130813 4.60935,1.393063 2.428758,-1.111924 2.93985,-4.306869 0.971995,-6.076143 -0.679907,-0.611296 -1.513253,-0.952769 -2.325181,-0.952769 -0.530969,0 -0.535721,-0.0041 -0.748459,-0.644588 -0.117754,-0.354522 -0.251107,-0.584703 -0.296342,-0.511511 -0.132006,0.21359 -1.015596,0.778147 -1.21788,0.778147 -0.162366,0 -0.162626,0.05372 -0.0021,0.437868 0.176702,0.422906 0.171478,0.446896 -0.152891,0.702045 -0.543648,0.427634 -1.127245,1.345763 -1.292025,2.032645 l -0.153361,0.639283 -2.754762,1.810615 c -1.515121,0.995838 -2.788139,1.810614 -2.828931,1.810614 -0.103,0 0.694551,-1.087998 1.893215,-2.582677 1.083972,-1.351662 2.915766,-3.25102 4.202004,-4.356989 l 0.793606,-0.682381 -0.460919,-1.322834 c -0.253505,-0.727559 -0.532294,-1.492914 -0.61953,-1.700788 -0.08724,-0.207874 -0.263008,-0.71811 -0.390603,-1.133858 -0.127596,-0.415748 -0.283137,-0.82605 -0.345651,-0.911782 -0.224477,-0.307858 0.018,-0.505191 0.730084,-0.594161 0.81481,-0.101803 1.014478,0.0023 1.145121,0.597127 0.04791,0.218135 0.131567,0.483508 0.185904,0.589721 0.05434,0.106211 0.193263,0.476575 0.308726,0.823032 0.115462,0.346457 0.254473,0.743307 0.308916,0.88189 0.05444,0.138582 0.200374,0.563779 0.32429,0.944882 0.123915,0.381102 0.241234,0.712723 0.260709,0.736936 0.01947,0.02421 0.62032,-0.321219 1.335213,-0.767624 2.862011,-1.787142 5.232773,-2.89747 8.543888,-4.001462 4.6669,-1.5560405 9.194127,-2.1957336 12.124602,-1.7131958 0.674843,0.1111208 1.270117,0.2007772 1.322832,0.1992363 0.283391,-0.0083 -2.658563,-2.0019613 -4.169686,-2.8256773 -1.408629,-0.767838 -3.608383,-1.696282 -5.513636,-2.327119 l -1.590192,-0.526519 -0.140727,-0.700734 c -0.153989,-0.766771 -0.116314,-0.924236 0.221131,-0.924236 0.331346,0 2.915944,0.836667 4.359819,1.411329 3.832942,1.525509 8.139676,4.309426 9.877222,6.3847368 0.420259,0.5019547 0.815343,0.792459 1.64318,1.208226 2.356526,1.18352 4.776297,3.120126 6.315473,5.054438 0.919401,1.155429 2.036832,3.041997 2.6439,4.463711 l 0.528124,1.236834 1.77949,0.714722 c 2.438443,0.979386 6.79579,3.135617 8.376475,4.145089 3.323983,2.122808 5.832731,4.614902 7.189839,7.142102 l 0.51446,0.958037 -2.40286,0.286211 c -2.016582,0.2402 -2.801561,0.27566 -4.882928,0.220578 -2.730267,-0.07225 -4.077888,-0.274913 -6.889514,-1.03606 -6.183119,-1.67386 -8.58042,-2.169403 -11.19423,-2.313943 -3.067189,-0.16961 -5.604165,0.223888 -7.572896,1.174596 -1.161637,0.56096 -1.76319,1.000766 -3.502747,2.560916 -3.854036,3.456557 -5.525584,6.363267 -6.076623,10.566846 -0.346307,2.641774 -0.184602,4.367025 0.641588,6.845252 0.947903,2.843316 2.475437,5.334644 4.518889,7.370074 3.288645,3.27574 7.231326,4.86997 12.056737,4.87514 1.015887,0.001 2.13557,-0.0377 2.488184,-0.0862 0.360912,-0.0496 0.641116,-0.0387 0.641116,0.0251 0,0.2328 -1.418966,1.82224 -2.237734,2.50658 -0.466881,0.39023 -1.359109,1.0479 -1.98273,1.4615 -0.62362,0.41359 -1.162202,0.78318 -1.196848,0.8213 -0.128632,0.14152 3.266555,-0.0971 4.787392,-0.3365 4.084471,-0.6429 8.555925,-1.8338 10.934081,-2.91211 0.452206,-0.20504 0.841587,-0.35342 0.86528,-0.32972 0.08137,0.0814 -2.350714,1.78648 -3.767498,2.64135 -5.850409,3.53009 -12.432733,5.81473 -19.370423,6.72322 -1.840492,0.24101 -7.352369,0.31881 -9.763759,0.13781 l -1.25984,-0.0946 0.881888,0.57586 c 2.798536,1.82742 5.917192,3.07626 10.654546,4.26653 l 1.691886,0.42509 -2.645665,-0.006 c -1.455115,-0.003 -3.354323,-0.0529 -4.220463,-0.11024 z M 67.348626,21.289873 c 1.406005,-0.638573 2.11023,-2.212871 1.661751,-3.714855 -0.211179,-0.707251 -1.26098,-1.773771 -1.923901,-1.954537 -2.083324,-0.568086 -3.96911,0.804125 -3.964498,2.884802 0.0017,0.748805 0.325797,1.620128 0.791222,2.126911 0.752663,0.819542 2.389209,1.132844 3.435426,0.657679 z M 2.7126614,56.559006 C 2.5015189,56.217376 3.581591,47.139936 4.2342298,43.771023 5.633368,36.548692 8.3029089,29.662047 11.307904,25.522984 11.549222,25.190593 11.720918,24.892891 11.68945,24.861424 11.61523,24.787204 9.354741,26.339315 7.7647527,27.556232 6.46597,28.550273 4.5827578,30.172682 1.8438411,32.657168 0.95244604,33.465757 0.17291964,34.12733 0.11156077,34.12733 0.0502009,34.12733 0,33.853551 0,33.518933 0,32.870801 0.77393541,31.048408 2.5573617,27.497087 7.377288,17.899211 14.416771,11.206589 23.234318,7.8389594 l 1.773505,-0.6773432 -0.944881,0.07395 c -0.519683,0.04067 -2.666763,0.300034 -4.771287,0.5763542 -2.104523,0.27632 -3.975386,0.4851304 -4.157471,0.4640212 -0.234283,-0.02716 -0.331064,-0.1120391 -0.331064,-0.2903472 0,-0.206749 0.553937,-0.5049872 3.086607,-1.6618162 3.854399,-1.760547 5.752247,-2.55364 7.999984,-3.343117 3.655784,-1.284031 7.299293,-2.1624061 10.88826,-2.62493711 3.477082,-0.44811104 8.458392,-0.47936704 9.036422,-0.0567 0.214487,0.156838 0.208938,0.196321 -0.108796,0.77409911 l -0.334812,0.608832 -3.063386,0.01511 c -3.388766,0.01671 -5.380323,0.208161 -8.494373,0.816555 -2.767232,0.540636 -6.227818,1.549673 -8.994179,2.62252 l -0.94488,0.366442 2.834639,-0.01834 c 3.449164,-0.02231 7.056886,0.153559 7.12985,0.347567 0.02855,0.07592 0.0078,0.478191 -0.04602,0.89394 l -0.09793,0.755905 -0.878784,-0.03354 c -0.483332,-0.01845 -1.474059,0.05692 -2.201617,0.167475 C 20.574619,9.1411778 11.775094,15.244642 6.0140469,24.678506 c -1.1176966,1.830257 -2.1893817,3.844356 -1.9750741,3.711906 0.097959,-0.06054 0.8024876,-0.622994 1.5656205,-1.249894 2.5851528,-2.123659 5.9026337,-4.306272 8.6087897,-5.663832 0.645723,-0.323932 1.484148,-0.841552 1.863166,-1.150266 0.379017,-0.308716 0.76906,-0.5613 0.866761,-0.5613 0.201592,0 0.998778,1.577127 0.887883,1.756559 -0.03975,0.06432 -0.397172,0.265079 -0.794271,0.446138 -0.818636,0.373262 -1.647251,1.132226 -3.028226,2.773681 -3.683164,4.377887 -6.4832791,10.978921 -8.0758509,19.038139 -0.3788459,1.917152 -0.9430928,5.584173 -0.8704221,5.656843 0.022199,0.0222 0.4888637,-0.791232 1.0370335,-1.807625 2.0444384,-3.79071 5.0879325,-8.330212 5.6586515,-8.440124 0.263665,-0.05078 1.218239,0.56943 1.218239,0.791515 0,0.08215 -0.315108,0.542157 -0.700242,1.022237 -1.912658,2.384185 -3.5826377,5.191715 -6.8054751,11.4412 -1.6827492,3.263063 -2.2084497,4.180263 -2.4133043,4.210533 -0.1440487,0.0213 -0.2991494,-0.0216 -0.3446683,-0.0952 z M 13.291312,39.082896 c -1.19389,-0.630821 -1.641168,-1.91957 -1.085891,-3.128794 0.27525,-0.59941 0.556206,-0.868022 1.180942,-1.129053 0.817311,-0.341494 1.88015,-0.169643 2.532298,0.409449 0.370925,0.329373 0.705378,1.162125 0.70846,1.763993 0.0029,0.573163 -0.32024,1.340023 -0.708236,1.680576 -0.700598,0.614932 -1.883865,0.796786 -2.627573,0.403829 z M 39.74795,22.490413 c -0.346456,-0.162731 -0.726015,-0.404141 -0.843464,-0.536468 -0.363164,-0.409166 -0.725803,-1.345416 -0.725803,-1.873859 0,-0.528442 0.362639,-1.464692 0.725803,-1.873858 0.332319,-0.374415 1.420174,-0.832341 1.97732,-0.832341 0.557145,0 1.645,0.457926 1.97732,0.832341 0.362176,0.408052 0.725725,1.344672 0.727338,1.873858 0.0017,0.556223 -0.455406,1.644131 -0.830804,1.977325 -0.408051,0.362177 -1.344668,0.725727 -1.873854,0.727339 -0.277165,8.82e-4 -0.787401,-0.131607 -1.133856,-0.294337 z M 19.548718,21.265758 c -1.10638,-0.562203 -1.572504,-1.952849 -1.030117,-3.073276 1.020441,-2.107952 4.156812,-1.52701 4.381521,0.811579 0.171448,1.784303 -1.745309,3.077827 -3.351404,2.261697 z m 3.832083,-3.59524 c -0.179152,-0.320539 -0.32573,-0.623168 -0.32573,-0.67251 0,-0.177047 10.793451,-8.1935129 11.031823,-8.1935089 0.281479,8e-6 0.973024,0.8052185 0.913646,1.0638209 -0.04984,0.217077 -10.88257,8.384995 -11.120625,8.384995 -0.09536,0 -0.31996,-0.262259 -0.499114,-0.582797 z M 36.052622,9.0452853 C 34.501636,8.257159 34.358156,6.0135782 35.797813,5.0608562 c 1.483393,-0.981664 3.435981,-0.04889 3.606212,1.722732 0.171448,1.7843022 -1.745308,3.0778266 -3.351403,2.2616971 z m 4.218966,-2.3510261 c -0.03199,-0.05197 -0.09771,-0.358743 -0.146046,-0.681723 -0.07517,-0.502271 -0.05306,-0.605872 0.152799,-0.716046 0.506226,-0.270924 4.60645,-1.783333 4.834715,-1.783333 0.264324,0 0.81926,1.010896 0.710511,1.294294 -0.0747,0.194664 -4.752412,1.981297 -5.187375,1.981297 -0.168543,0 -0.332616,-0.04252 -0.364604,-0.094489 z m 7.245576,-1.932438 c -1.10638,-0.562203 -1.572504,-1.952849 -1.030117,-3.073276 1.018165,-2.10325215 4.090671,-1.55002611 4.367382,0.786378 0.212157,1.791338 -1.714413,3.111542 -3.337265,2.286898 z"
       id="path22" />
  </g>
</svg>
